<svg width="80" height="78" viewBox="0 0 80 78" fill="none" xmlns="http://www.w3.org/2000/svg">
<g clip-path="url(#clip0_1428_8631)">
<path d="M75.0671 31.2029C74.6061 29.2487 73.9779 27.3341 73.1833 25.4679C71.369 21.2095 68.7729 17.3847 65.4653 14.1002C62.1577 10.8167 58.3069 8.23778 54.0176 6.43623C49.5774 4.57094 44.8606 3.62573 39.9991 3.62573C35.1376 3.62573 30.4217 4.57094 25.9806 6.43623C21.6922 8.23778 17.8405 10.8158 14.5329 14.1002C11.2253 17.3847 8.62915 21.2086 6.81491 25.4679C6.02034 27.3341 5.39209 29.2487 4.93107 31.2029H0V47.5739H4.93288C5.3948 49.5281 6.02305 51.4427 6.81763 53.3089C8.63096 57.5673 11.228 61.3921 14.5356 64.6766C17.8432 67.961 21.694 70.539 25.9833 72.3406C30.4235 74.2059 35.1403 75.1511 40.0018 75.1511C44.8633 75.1511 49.5792 74.2059 54.0203 72.3406C58.3087 70.5399 62.1604 67.961 65.468 64.6766C68.7747 61.3921 71.3717 57.5682 73.186 53.3089C73.9806 51.4427 74.6088 49.5281 75.0698 47.5739H80.0027V31.2029H75.0698H75.0671ZM73.9489 31.2029H57.7998C57.5982 29.4983 57.3342 27.8296 57.0088 26.2102C61.6804 25.4688 66.2924 24.4203 70.8194 23.0694C72.1889 25.6088 73.2484 28.3367 73.9489 31.2029ZM70.2816 22.1089C65.8567 23.4186 61.3505 24.4374 56.7873 25.1591C55.9015 21.1386 54.6359 17.4394 53.0251 14.2403C52.8841 13.9602 52.7403 13.6855 52.5957 13.4153C54.7498 12.5491 56.819 11.4558 58.7724 10.1462C63.5073 13.1541 67.4667 17.2644 70.2816 22.1089ZM57.7591 9.52678C55.9521 10.7 54.0465 11.6847 52.0669 12.471C50.6314 10.0007 49.0169 8.0044 47.2524 6.5224C46.5871 5.96317 45.9091 5.48473 45.2194 5.08798C49.7392 5.763 53.9779 7.30065 57.7591 9.52678ZM40.5406 4.71815C44.4086 4.96141 48.0759 7.8132 51.0436 12.8579C47.6999 14.0571 44.1609 14.7034 40.5406 14.7618V4.71815ZM40.5406 15.8354C44.3489 15.7752 48.0687 15.0867 51.5797 13.8058C51.7415 14.1047 51.9015 14.4099 52.0578 14.7214C53.6217 17.8263 54.8529 21.416 55.718 25.3225C50.7137 26.0621 45.6434 26.4463 40.5406 26.4714V15.8345V15.8354ZM40.5406 27.5459C45.7184 27.5208 50.8628 27.1294 55.9394 26.3754C56.2558 27.9418 56.5134 29.5539 56.7114 31.2038H40.5406V27.5459ZM24.282 25.3234C25.148 21.4169 26.3783 17.8272 27.9421 14.7223C28.0994 14.4099 28.2585 14.1047 28.4203 13.8067C31.9313 15.0876 35.652 15.777 39.4594 15.8363V26.4732C34.3557 26.4481 29.2854 26.063 24.282 25.3243V25.3234ZM39.4594 27.5459V31.2038H23.2886C23.4875 29.5548 23.7442 27.9418 24.0606 26.3754C29.1372 27.1285 34.2816 27.5199 39.4594 27.5459ZM28.9564 12.8579C31.9232 7.8141 35.5905 4.96231 39.4594 4.71815V14.7618C35.8391 14.7034 32.301 14.0563 28.9564 12.8579ZM34.7797 5.08798C34.0908 5.48473 33.412 5.96317 32.7476 6.5224C30.983 8.0044 29.3686 10.0007 27.9331 12.471C25.9534 11.6847 24.0488 10.7 22.2409 9.52678C26.023 7.30065 30.2608 5.763 34.7797 5.08798ZM21.2267 10.1471C23.181 11.4576 25.2493 12.55 27.4034 13.4162C27.2588 13.6855 27.1159 13.9602 26.974 14.2412C25.3632 17.4403 24.0967 21.1395 23.2118 25.16C18.6486 24.4383 14.1415 23.4195 9.71751 22.1098C12.5315 17.2653 16.4918 13.155 21.2267 10.1471ZM9.18147 23.0694C13.7085 24.4203 18.3205 25.4688 22.9921 26.2102C22.6667 27.8296 22.4027 29.4983 22.2011 31.2029H6.05107C6.75164 28.3376 7.81107 25.6088 9.18056 23.0694H9.18147ZM6.05198 47.5739H22.2011C22.4027 49.2785 22.6667 50.9473 22.9921 52.5666C18.3205 53.3071 13.7085 54.3565 9.18147 55.7083C7.81198 53.168 6.75254 50.4401 6.05198 47.5739ZM9.71842 56.6679C14.1424 55.3582 18.6495 54.3394 23.2127 53.6186C24.0976 57.6382 25.3641 61.3374 26.9749 64.5366C27.1159 64.8166 27.2588 65.0913 27.4043 65.3615C25.2502 66.2277 23.181 67.321 21.2276 68.6307C16.4927 65.6227 12.5333 61.5133 9.71842 56.6679ZM22.2409 69.25C24.0479 68.0768 25.9534 67.0921 27.9331 66.3058C29.3686 68.7761 30.983 70.7724 32.7476 72.2544C33.412 72.8136 34.0908 73.2912 34.7797 73.6888C30.2608 73.0138 26.0212 71.4762 22.2409 69.25ZM39.4594 74.0587C35.5914 73.8154 31.9241 70.9636 28.9564 65.9189C32.301 64.7197 35.8391 64.0734 39.4594 64.015V74.0587ZM39.4594 62.9415C35.6511 63.0016 31.9313 63.6901 28.4203 64.971C28.2585 64.6721 28.0985 64.3669 27.9421 64.0554C26.3783 60.9505 25.1471 57.3591 24.282 53.4534C29.2863 52.7138 34.3566 52.3296 39.4594 52.3045V62.9415ZM39.4594 51.2309C34.2807 51.256 29.1372 51.6474 24.0606 52.4014C23.7442 50.835 23.4875 49.2229 23.2886 47.573H39.4594V51.2309ZM40.5406 51.2309V47.573H56.7114C56.5125 49.222 56.2558 50.835 55.9394 52.4014C50.8628 51.6483 45.7175 51.2569 40.5406 51.2309ZM55.718 53.4534C54.8529 57.3591 53.6208 60.9496 52.0578 64.0554C51.9015 64.3669 51.7406 64.6721 51.5797 64.971C48.0687 63.6901 44.3489 63.0007 40.5406 62.9415V52.3045C45.6443 52.3296 50.7146 52.7147 55.718 53.4534ZM40.5406 64.0141C44.1609 64.0725 47.699 64.7197 51.0436 65.9189C48.0768 70.9627 44.4095 73.8136 40.5406 74.0578V64.0141ZM45.2203 73.6879C45.9091 73.2903 46.588 72.8127 47.2524 72.2535C49.0169 70.7715 50.6314 68.7752 52.0669 66.3049C54.0465 67.0921 55.9512 68.0759 57.7591 69.2491C53.9769 71.4753 49.7392 73.0129 45.2203 73.6879ZM58.7733 68.6289C56.819 67.3183 54.7507 66.2259 52.5966 65.3597C52.7412 65.0904 52.8841 64.8148 53.026 64.5348C54.6368 61.3356 55.9033 57.6364 56.7882 53.6168C61.3514 54.3385 65.8585 55.3564 70.2825 56.6661C67.4685 61.5106 63.5091 65.6209 58.7733 68.6289ZM70.8194 55.7065C66.2924 54.3556 61.6804 53.3062 57.0088 52.5648C57.3342 50.9455 57.5982 49.2768 57.7998 47.5721H73.9489C73.2484 50.4374 72.1889 53.1662 70.8194 55.7065ZM78.7842 46.3648H1.21582V32.4093H78.7842V46.3648Z" fill="#F1F1F1"/>
<path d="M20.816 43.4429L21.8085 42.0525H28.411L29.4135 43.4582H32.5321L32.4905 43.4016L26.4847 35.3193H23.8307L23.8198 35.3337L17.7832 43.4582H20.806L20.8169 43.4429H20.816ZM25.1143 37.4099L27.009 40.0795H23.2096L25.1143 37.4099Z" fill="#F1F1F1"/>
<path d="M36.0968 41.5911H41.7185C42.8548 41.5911 43.756 41.3128 44.396 40.7644C45.0378 40.2141 45.3632 39.4377 45.3632 38.4548C45.3632 37.4719 45.0378 36.6963 44.396 36.1461C43.756 35.5976 42.8548 35.3193 41.7185 35.3193H33.4934V43.4582H36.0977V41.5911H36.0968ZM36.0968 37.4647H41.3171C41.8062 37.4647 42.165 37.5455 42.3838 37.7052C42.6017 37.865 42.7074 38.1137 42.7074 38.4664C42.7074 38.8192 42.6017 39.0544 42.3847 39.2097C42.166 39.3659 41.8071 39.4458 41.318 39.4458H36.0977V37.4647H36.0968Z" fill="#F1F1F1"/>
<path d="M63.2867 42.5481C64.4727 43.259 66.2209 43.619 68.4826 43.619C70.7443 43.619 72.4917 43.2581 73.6777 42.5481C74.8691 41.8336 75.4729 40.778 75.4729 39.4109C75.4729 38.0438 74.8709 36.9621 73.6831 36.2395C72.5007 35.5214 70.7507 35.157 68.4826 35.157C66.2146 35.157 64.4727 35.5214 63.2867 36.2395C62.0953 36.9612 61.4915 38.0285 61.4915 39.41C61.4915 40.7914 62.0953 41.8327 63.2867 42.5472V42.5481ZM65.1787 37.8122C65.8711 37.4747 66.983 37.3032 68.4826 37.3032C69.9823 37.3032 71.0933 37.4747 71.7866 37.8122C72.4799 38.1515 72.8171 38.6739 72.8171 39.4109C72.8171 40.1478 72.4799 40.6353 71.7866 40.9701C71.0942 41.304 69.9832 41.4736 68.4826 41.4736C66.9821 41.4736 65.8702 41.304 65.1787 40.9701C64.4863 40.6353 64.1491 40.1254 64.1491 39.4109C64.1491 38.6964 64.4863 38.1506 65.1796 37.8122H65.1787Z" fill="#F1F1F1"/>
<path d="M60.3552 41.3909H59.0192V35.3167H48.1826V35.3508L48.15 36.559C48.1292 37.3229 48.0886 37.9835 48.0289 38.523C47.9602 39.1388 47.8843 39.5319 47.7776 39.8371C47.6502 40.1962 47.3473 40.8739 46.7471 41.382L46.7381 41.39H46.0059V43.4349H60.3552V41.39V41.3909ZM56.414 41.3909H49.6985L49.7392 41.3371C50.1568 40.7824 50.3982 39.8686 50.485 39.198L50.4976 39.0993C50.5564 38.6523 50.6287 38.0993 50.6567 37.453L50.6585 37.4207H56.4149V41.39L56.414 41.3909Z" fill="#F1F1F1"/>
<path d="M7.13109 40.1514L12.666 43.4583H17.2265L17.1162 43.3927L10.0138 39.1478L17.0583 35.3203H12.7826L12.7745 35.3248L7.13109 38.4701V35.3203H4.52679V43.4583H7.13109V40.1514Z" fill="#F1F1F1"/>
</g>
<defs>
<clipPath id="clip0_1428_8631">
<rect width="80" height="78" fill="white"/>
</clipPath>
</defs>
</svg>
