<svg width="28" height="28" viewBox="0 0 28 28" fill="none" xmlns="http://www.w3.org/2000/svg">
<path d="M14.9953 4.36218C14.8738 4.24401 14.7282 4.15093 14.5675 4.08869C14.4067 4.02645 14.2344 3.99638 14.061 4.00035C13.8876 4.00432 13.7169 4.04224 13.5595 4.11176C13.4021 4.18128 13.2614 4.28092 13.1459 4.4045L5.32173 12.7722C5.11451 12.9938 4.99998 13.2805 5 13.5776V22.7906C5 23.1114 5.13345 23.419 5.371 23.6458C5.60854 23.8726 5.93073 24 6.26667 24H10.0667C10.4026 24 10.7248 23.8726 10.9623 23.6458C11.1999 23.419 11.3333 23.1114 11.3333 22.7906V18.5578C11.3333 18.2371 11.4668 17.9295 11.7043 17.7027C11.9419 17.4759 12.2641 17.3484 12.6 17.3484H16.4C16.7359 17.3484 17.0581 17.4759 17.2957 17.7027C17.5332 17.9295 17.6667 18.2371 17.6667 18.5578V22.7906C17.6667 23.1114 17.8001 23.419 18.0377 23.6458C18.2752 23.8726 18.5974 24 18.9333 24H22.7333C23.0693 24 23.3915 23.8726 23.629 23.6458C23.8665 23.419 24 23.1114 24 22.7906V13.6103C23.9996 13.2935 23.8691 12.9895 23.6365 12.7637L14.9953 4.36218Z" stroke="#808080" stroke-width="2"/>
</svg>
