<svg width="28" height="28" viewBox="0 0 28 28" fill="none" xmlns="http://www.w3.org/2000/svg">
<path d="M4.66675 10.5V22.1667C4.66675 22.7855 4.91258 23.379 5.35017 23.8166C5.78775 24.2542 6.38124 24.5 7.00008 24.5H21.0001C21.6189 24.5 22.2124 24.2542 22.65 23.8166C23.0876 23.379 23.3334 22.7855 23.3334 22.1667V10.5M4.66675 10.5V8.16667C4.66675 7.54783 4.91258 6.95434 5.35017 6.51675C5.78775 6.07917 6.38124 5.83333 7.00008 5.83333H9.33341M4.66675 10.5H23.3334M23.3334 10.5V8.16667C23.3334 7.54783 23.0876 6.95434 22.65 6.51675C22.2124 6.07917 21.6189 5.83333 21.0001 5.83333H18.6667M9.33341 5.83333H18.6667M9.33341 5.83333V3.5M18.6667 5.83333V3.5" stroke="#808080" stroke-width="2" stroke-linecap="round" stroke-linejoin="round"/>
</svg>
