<svg width="100" height="100" viewBox="0 0 100 100" fill="none" xmlns="http://www.w3.org/2000/svg">
<g clip-path="url(#clip0_3003_7813)">
<path d="M93.8339 40.0037C93.2576 37.4984 92.4723 35.0437 91.4791 32.6512C89.2113 27.1917 85.9661 22.2881 81.8316 18.0773C77.6972 13.8676 72.8836 10.5613 67.522 8.25164C61.9717 5.86024 56.0757 4.64844 49.9989 4.64844C43.922 4.64844 38.0271 5.86024 32.4757 8.25164C27.1153 10.5613 22.3006 13.8665 18.1661 18.0773C14.0316 22.2881 10.7864 27.1906 8.51864 32.6512C7.52542 35.0437 6.74011 37.4984 6.16384 40.0037H0V60.9923H6.1661C6.7435 63.4976 7.52881 65.9523 8.52203 68.3448C10.7887 73.8043 14.035 78.7079 18.1695 82.9188C22.304 87.1296 27.1175 90.4347 32.4791 92.7444C38.0294 95.1358 43.9254 96.3476 50.0023 96.3476C56.0791 96.3476 61.974 95.1358 67.5254 92.7444C72.8859 90.4359 77.7006 87.1296 81.835 82.9188C85.9684 78.7079 89.2147 73.8055 91.4825 68.3448C92.4757 65.9523 93.261 63.4976 93.8373 60.9923H100.003V40.0037H93.8373H93.8339ZM92.4361 40.0037H72.2497C71.9977 37.8184 71.6678 35.679 71.261 33.6029C77.1006 32.6523 82.8655 31.3082 88.5243 29.5762C90.2362 32.8319 91.5604 36.3292 92.4361 40.0037ZM87.852 28.3449C82.3209 30.0239 76.6881 31.3301 70.9842 32.2553C69.8768 27.1008 68.2949 22.3583 66.2814 18.2568C66.1051 17.8978 65.9254 17.5456 65.7446 17.1992C68.4373 16.0887 71.0237 14.687 73.4655 13.008C79.3842 16.8643 84.3333 22.1339 87.852 28.3449ZM72.1989 12.2139C69.9401 13.718 67.5582 14.9804 65.0836 15.9886C63.2893 12.8215 61.2712 10.2621 59.0655 8.36212C58.2339 7.64516 57.3864 7.03177 56.5243 6.52311C62.174 7.38853 67.4723 9.35987 72.1989 12.2139ZM50.6757 6.04898C55.5107 6.36085 60.0949 10.017 63.8045 16.4846C59.6249 18.022 55.2011 18.8506 50.6757 18.9254V6.04898ZM50.6757 20.3018C55.4362 20.2247 60.0859 19.342 64.4746 17.6998C64.6768 18.083 64.8768 18.4743 65.0723 18.8737C67.0271 22.8543 68.5661 27.4564 69.6475 32.4648C63.3921 33.413 57.0542 33.9056 50.6757 33.9378V20.3007V20.3018ZM50.6757 35.3153C57.148 35.2831 63.5785 34.7814 69.9243 33.8147C70.3198 35.8228 70.6418 37.8897 70.8893 40.0049H50.6757V35.3153ZM30.3525 32.4659C31.435 27.4576 32.9729 22.8555 34.9277 18.8748C35.1243 18.4743 35.3232 18.083 35.5254 17.701C39.9141 19.3432 44.565 20.227 49.3243 20.303V33.9401C42.9446 33.9079 36.6068 33.4142 30.3525 32.4671V32.4659ZM49.3243 35.3153V40.0049H29.1107C29.3593 37.8909 29.6802 35.8228 30.0757 33.8147C36.4215 34.7802 42.852 35.282 49.3243 35.3153ZM36.1955 16.4846C39.9039 10.0181 44.4881 6.362 49.3243 6.04898V18.9254C44.7989 18.8506 40.3763 18.0209 36.1955 16.4846ZM43.4746 6.52311C42.6136 7.03177 41.765 7.64516 40.9345 8.36212C38.7288 10.2621 36.7107 12.8215 34.9164 15.9886C32.4418 14.9804 30.061 13.718 27.8011 12.2139C32.5288 9.35987 37.826 7.38853 43.4746 6.52311ZM26.5333 13.0091C28.9763 14.6893 31.5616 16.0898 34.2542 17.2004C34.0734 17.5456 33.8949 17.8978 33.7175 18.258C31.704 22.3595 30.1209 27.102 29.0147 32.2565C23.3107 31.3312 17.6768 30.025 12.1469 28.346C15.6644 22.1351 20.6147 16.8655 26.5333 13.0091ZM11.4768 29.5762C17.1356 31.3082 22.9006 32.6523 28.7401 33.6029C28.3333 35.679 28.0034 37.8184 27.7514 40.0037H7.56384C8.43955 36.3303 9.76384 32.8319 11.4757 29.5762H11.4768ZM7.56497 60.9923H27.7514C28.0034 63.1777 28.3333 65.3171 28.7401 67.3931C22.9006 68.3425 17.1356 69.6878 11.4768 71.421C9.76497 68.1642 8.44068 64.6668 7.56497 60.9923ZM12.148 72.6512C17.678 70.9722 23.3119 69.666 29.0158 68.7419C30.122 73.8952 31.7051 78.6377 33.7186 82.7392C33.8949 83.0983 34.0734 83.4504 34.2554 83.7968C31.5627 84.9074 28.9763 86.3091 26.5345 87.9881C20.6158 84.1317 15.6667 78.8633 12.148 72.6512ZM27.8011 88.7822C30.0599 87.278 32.4418 86.0156 34.9164 85.0075C36.7107 88.1745 38.7288 90.7339 40.9345 92.6339C41.765 93.3509 42.6136 93.9631 43.4746 94.4729C37.826 93.6075 32.5266 91.6362 27.8011 88.7822ZM49.3243 94.9471C44.4893 94.6352 39.9051 90.9791 36.1955 84.5115C40.3763 82.974 44.7989 82.1454 49.3243 82.0706V94.9471ZM49.3243 80.6942C44.5638 80.7713 39.9141 81.654 35.5254 83.2962C35.3232 82.913 35.1232 82.5217 34.9277 82.1224C32.9729 78.1417 31.4339 73.5373 30.3525 68.5301C36.6079 67.5819 42.9458 67.0893 49.3243 67.0571V80.6942ZM49.3243 65.6807C42.8508 65.7129 36.4215 66.2147 30.0757 67.1814C29.6802 65.1732 29.3593 63.1063 29.1107 60.9911H49.3243V65.6807ZM50.6757 65.6807V60.9911H70.8893C70.6407 63.1052 70.3198 65.1732 69.9243 67.1814C63.5785 66.2158 57.1469 65.7141 50.6757 65.6807ZM69.6475 68.5301C68.5661 73.5373 67.026 78.1406 65.0723 82.1224C64.8768 82.5217 64.6757 82.913 64.4746 83.2962C60.0859 81.654 55.4362 80.7702 50.6757 80.6942V67.0571C57.0554 67.0893 63.3932 67.583 69.6475 68.5301ZM50.6757 82.0695C55.2011 82.1443 59.6237 82.974 63.8045 84.5115C60.096 90.9779 55.5119 94.6329 50.6757 94.9459V82.0695ZM56.5254 94.4718C57.3864 93.962 58.235 93.3497 59.0655 92.6328C61.2712 90.7328 63.2893 88.1734 65.0836 85.0063C67.5582 86.0156 69.939 87.2769 72.1989 88.781C67.4712 91.635 62.174 93.6064 56.5254 94.4718ZM73.4667 87.9858C71.0237 86.3056 68.4384 84.9051 65.7458 83.7945C65.9265 83.4493 66.1051 83.096 66.2825 82.7369C68.296 78.6354 69.8791 73.8929 70.9853 68.7396C76.6893 69.6648 82.3232 70.9699 87.8531 72.6489C84.3356 78.8598 79.3864 84.1294 73.4667 87.9858ZM88.5243 71.4187C82.8655 69.6867 77.1006 68.3414 71.261 67.3908C71.6678 65.3148 71.9977 63.1754 72.2497 60.99H92.4361C91.5604 64.6634 90.2362 68.1619 88.5243 71.4187ZM98.4802 59.4422H1.51977V41.5504H98.4802V59.4422Z" fill="#FF4310"/>
<path d="M26.02 55.6961L27.2606 53.9135H35.5138L36.7669 55.7157H40.6652L40.6132 55.6432L33.1058 45.2812H29.7883L29.7748 45.2997L22.229 55.7157H26.0075L26.0211 55.6961H26.02ZM31.3928 47.9615L33.7612 51.384H29.0121L31.3928 47.9615Z" fill="#FF4310"/>
<path d="M45.1209 53.322H52.1481C53.5684 53.322 54.695 52.9652 55.4949 52.2621C56.2972 51.5566 56.704 50.5612 56.704 49.301C56.704 48.0409 56.2972 47.0466 55.4949 46.3411C54.695 45.638 53.5684 45.2812 52.1481 45.2812H41.8667V55.7157H45.1221V53.322H45.1209ZM45.1209 48.0317H51.6464C52.2577 48.0317 52.7062 48.1353 52.9797 48.3401C53.252 48.545 53.3842 48.8637 53.3842 49.316C53.3842 49.7683 53.252 50.0698 52.9808 50.2689C52.7074 50.4691 52.2588 50.5715 51.6475 50.5715H45.1221V48.0317H45.1209Z" fill="#FF4310"/>
<path d="M79.1083 54.5486C80.5908 55.46 82.7761 55.9215 85.6032 55.9215C88.4304 55.9215 90.6145 55.4589 92.097 54.5486C93.5863 53.6325 94.3411 52.2792 94.3411 50.5265C94.3411 48.7738 93.5886 47.387 92.1038 46.4606C90.6258 45.54 88.4383 45.0728 85.6032 45.0728C82.7682 45.0728 80.5908 45.54 79.1083 46.4606C77.6191 47.3859 76.8643 48.7542 76.8643 50.5253C76.8643 52.2964 77.6191 53.6314 79.1083 54.5474V54.5486ZM81.4733 48.4769C82.3388 48.0442 83.7287 47.8244 85.6032 47.8244C87.4778 47.8244 88.8665 48.0442 89.7332 48.4769C90.5999 48.9119 91.0213 49.5816 91.0213 50.5265C91.0213 51.4713 90.5999 52.0962 89.7332 52.5254C88.8676 52.9535 87.4789 53.171 85.6032 53.171C83.7275 53.171 82.3377 52.9535 81.4733 52.5254C80.6078 52.0962 80.1863 51.4425 80.1863 50.5265C80.1863 49.6104 80.6078 48.9107 81.4744 48.4769H81.4733Z" fill="#FF4310"/>
<path d="M75.444 53.0654H73.774V45.2778H60.2282V45.3216L60.1875 46.8706C60.1616 47.8499 60.1107 48.6969 60.0361 49.3885C59.9503 50.178 59.8553 50.6821 59.722 51.0733C59.5627 51.5337 59.1842 52.4025 58.4339 53.0539L58.4226 53.0642H57.5073V55.6858H75.444V53.0642V53.0654ZM70.5175 53.0654H62.1231L62.174 52.9963C62.696 52.2851 62.9977 51.1136 63.1062 50.254L63.122 50.1274C63.1955 49.5543 63.2859 48.8454 63.3209 48.0168L63.3231 47.9753H70.5186V53.0642L70.5175 53.0654Z" fill="#FF4310"/>
<path d="M8.91406 51.4759L15.8327 55.7155H21.5333L21.3954 55.6315L12.5174 50.1893L21.3231 45.2822H15.9785L15.9683 45.288L8.91406 49.3204V45.2822H5.65869V55.7155H8.91406V51.4759Z" fill="#FF4310"/>
</g>
<defs>
<clipPath id="clip0_3003_7813">
<rect width="100" height="100" fill="white"/>
</clipPath>
</defs>
</svg>
