<svg width="17" height="20" viewBox="0 0 17 20" fill="none" xmlns="http://www.w3.org/2000/svg">
<g clip-path="url(#clip0_1189_7775)">
<path fill-rule="evenodd" clip-rule="evenodd" d="M8.5 3.09047L14.45 7.09047V12.9095L8.5 16.9095L2.55 12.9095V7.09047L8.5 3.09047ZM17 5.71429V14.2857L8.5 20L0 14.2857V5.71429L8.5 0L17 5.71429ZM8.5 13.7143C10.5342 13.7143 12.1833 12.0513 12.1833 10C12.1833 7.94866 10.5342 6.28571 8.5 6.28571C6.46575 6.28571 4.81667 7.94866 4.81667 10C4.81667 12.0513 6.46575 13.7143 8.5 13.7143ZM9.91667 10C9.91667 10.789 9.2824 11.4286 8.5 11.4286C7.7176 11.4286 7.08333 10.789 7.08333 10C7.08333 9.21102 7.7176 8.57143 8.5 8.57143C9.2824 8.57143 9.91667 9.21102 9.91667 10Z" fill="black"/>
</g>
<defs>
<clipPath id="clip0_1189_7775">
<rect width="17" height="20" fill="white"/>
</clipPath>
</defs>
</svg>
