<svg width="16" height="20" viewBox="0 0 16 20" fill="none" xmlns="http://www.w3.org/2000/svg">
<g clip-path="url(#clip0_844_7783)">
<g clip-path="url(#clip1_844_7783)">
<path d="M7.99712 13C9.37784 13 10.4971 11.8807 10.4971 10.5C10.4971 9.11932 9.37784 8.00003 7.99712 8.00003C6.61641 8.00003 5.49712 9.11932 5.49712 10.5C5.49712 11.8807 6.61641 13 7.99712 13Z" fill="black"/>
<path fill-rule="evenodd" clip-rule="evenodd" d="M7.99712 5C4.35909 5 1.62138 7.53827 0.356223 10.4185C0.277418 10.5979 0.277418 10.8021 0.356223 10.9815C1.64724 13.9206 4.4146 16.0092 7.99712 16.0092C11.5796 16.0092 14.347 13.9206 15.638 10.9815C15.7168 10.8021 15.7168 10.5979 15.638 10.4185C14.3729 7.53827 11.6351 5 7.99712 5ZM7.99712 14.6092C5.1302 14.6092 2.90114 13.0214 1.76804 10.6991C2.92528 8.29805 5.18116 6.4 7.99712 6.4C10.8131 6.4 13.069 8.29805 14.2262 10.6991C13.0931 13.0214 10.864 14.6092 7.99712 14.6092Z" fill="black"/>
</g>
</g>
<defs>
<clipPath id="clip0_844_7783">
<rect width="16" height="20" fill="white" transform="translate(-0.00292969)"/>
</clipPath>
<clipPath id="clip1_844_7783">
<rect width="16" height="20" fill="white" transform="translate(-0.00292969)"/>
</clipPath>
</defs>
</svg>
