<svg width="41" height="40" viewBox="0 0 41 40" fill="none" xmlns="http://www.w3.org/2000/svg">
<rect x="0.333328" width="40" height="40" fill="#F1F1F1"/>
<path d="M21.3158 27C13.7993 27 9.51197 21.7447 9.33333 13H13.0985C13.2221 19.4184 15.9979 22.1371 18.1965 22.6977V13H21.7418V18.5355C23.913 18.2973 26.194 15.7748 26.9636 13H30.5088C30.2189 14.4391 29.6409 15.8017 28.8109 17.0025C27.981 18.2033 26.9171 19.2166 25.6856 19.979C27.0602 20.6756 28.2743 21.6615 29.2478 22.8717C30.2214 24.082 30.9322 25.489 31.3333 27H27.4308C27.0706 25.6876 26.3387 24.5128 25.3267 23.6228C24.3147 22.7328 23.0677 22.1673 21.7418 21.997V27H21.3158Z" fill="#808080"/>
</svg>
